<svg version="1.1" id="Layer_1" xmlns="http://www.w3.org/2000/svg" xmlns:xlink="http://www.w3.org/1999/xlink" x="0px" y="0px"
	 width="100%" viewBox="0 0 1200 1200" enable-background="new 0 0 1200 1200" xml:space="preserve">
<path fill="#000000" opacity="1.000000" stroke="none" 
	d="
M691.000000,1201.000000 
	C460.666656,1201.000000 230.833328,1201.000000 1.000000,1201.000000 
	C1.000000,801.000000 1.000000,401.000000 1.000000,1.000000 
	C401.000000,1.000000 801.000000,1.000000 1201.000000,1.000000 
	C1201.000000,401.000000 1201.000000,801.000000 1201.000000,1201.000000 
	C1031.166626,1201.000000 861.333313,1201.000000 691.000000,1201.000000 
M988.482788,705.000000 
	C992.254150,705.000000 996.025513,705.000000 999.717285,705.000000 
	C999.717285,697.687073 999.717285,690.942444 999.717285,684.285156 
	C996.349365,684.285156 993.270630,684.285156 989.814331,684.285156 
	C989.814331,687.646851 989.814331,690.725830 989.814331,693.720032 
	C730.350464,693.720032 471.281647,693.720032 211.823242,693.720032 
	C211.823242,690.361328 211.823242,687.279724 211.823242,684.287842 
	C208.019852,684.287842 204.612823,684.287842 201.291718,684.287842 
	C201.291718,691.319458 201.291718,698.058899 201.291718,705.000000 
	C463.551880,705.000000 725.520447,705.000000 988.482788,705.000000 
M568.500000,568.000000 
	C708.928223,568.000000 849.356445,568.000000 990.172791,568.000000 
	C990.172791,571.636841 990.172791,574.719971 990.172791,577.714233 
	C993.643005,577.714233 996.717712,577.714233 999.709839,577.714233 
	C999.709839,571.018066 999.709839,564.610962 999.709839,558.282227 
	C733.355835,558.282227 467.292145,558.282227 201.283783,558.282227 
	C201.283783,564.977295 201.283783,571.385437 201.283783,577.714966 
	C204.984680,577.714966 208.395508,577.714966 212.185699,577.714966 
	C212.185699,574.356140 212.185699,571.271912 212.185699,568.000000 
	C330.886444,568.000000 449.193207,568.000000 568.500000,568.000000 
M600.013855,664.876465 
	C600.009277,644.210876 600.003967,623.545227 600.000305,602.879639 
	C599.998596,592.986755 600.578064,592.250793 609.679565,590.398438 
	C609.679565,587.286743 609.679565,584.218140 609.679565,581.129517 
	C597.723755,581.129517 586.088806,581.129517 574.125488,581.129517 
	C571.365417,595.182678 568.616150,609.180969 565.866821,623.179321 
	C565.391174,623.101685 564.915466,623.023987 564.439758,622.946350 
	C561.959351,610.322937 559.535461,597.687805 556.922485,585.091858 
	C556.617310,583.620605 555.295898,581.207214 554.399963,581.186279 
	C542.977966,580.919678 531.547668,581.010620 520.275269,581.010620 
	C520.275269,584.729919 520.275269,587.823853 520.275269,590.917725 
	C520.676392,590.531555 521.077515,590.145386 521.478638,589.759155 
	C523.919617,591.661804 527.084656,593.123657 528.589783,595.596069 
	C529.983154,597.884888 529.929504,601.253052 529.946350,604.149170 
	C530.052429,622.314209 530.013672,640.480225 529.994080,658.645874 
	C529.984497,667.481506 528.209839,669.791504 520.350952,671.646912 
	C520.350952,674.775635 520.350952,677.843506 520.350952,680.659790 
	C530.451172,680.659790 540.198425,680.659790 549.996521,680.659790 
	C549.996521,678.153870 550.222961,675.953247 549.898682,673.837036 
	C549.742249,672.815796 548.647888,671.249146 547.810364,671.132263 
	C541.948181,670.314209 541.095764,666.008545 541.051025,661.458557 
	C540.911743,647.294006 540.989807,633.127258 541.022522,618.961426 
	C541.024780,617.972656 541.345703,616.984680 541.518433,615.996277 
	C541.854492,615.992432 542.190552,615.988525 542.526672,615.984680 
	C546.778687,637.658997 551.030762,659.333313 555.247009,680.825439 
	C559.409790,680.825439 563.043518,680.825439 566.661133,680.825439 
	C571.249756,657.259338 575.805176,633.863708 580.360596,610.468079 
	C581.000000,626.921692 581.012817,643.330688 580.994263,659.739685 
	C580.985779,667.222107 579.161011,669.652710 572.198181,671.748474 
	C572.198181,674.728271 572.198181,677.673645 572.198181,680.795349 
	C584.806763,680.795349 597.216858,680.795349 609.812683,680.795349 
	C609.812683,677.502869 609.812683,674.415039 609.812683,670.981445 
	C605.112793,671.775085 601.814026,670.180847 600.013855,664.876465 
M254.002640,656.377563 
	C255.735886,664.535217 257.469147,672.692810 259.233887,680.998657 
	C262.344238,680.998657 265.179993,681.178162 267.971771,680.906372 
	C269.023285,680.804016 270.685303,679.804871 270.861023,678.962524 
	C273.036835,668.533081 275.002441,658.059448 276.996124,647.592285 
	C279.478607,634.558716 281.936768,621.520569 284.405426,608.484375 
	C284.999481,625.530396 285.176544,642.511230 284.924530,659.485657 
	C284.799225,667.926331 282.821198,670.146912 276.293762,671.541992 
	C276.293762,674.648987 276.293762,677.728394 276.293762,680.720093 
	C289.001282,680.720093 301.413086,680.720093 314.000000,680.720093 
	C314.000000,679.292419 313.916504,678.136841 314.015350,676.997070 
	C314.337128,673.287170 314.130310,670.480286 308.964478,670.742676 
	C307.453125,670.819458 305.193390,668.310059 304.359131,666.489807 
	C303.320068,664.222839 303.067627,661.443726 303.053619,658.882629 
	C302.953308,640.559387 302.871643,622.234070 303.053986,603.912109 
	C303.145782,594.687805 305.337189,592.021057 312.660400,590.368408 
	C312.660400,587.246643 312.660400,584.177612 312.660400,581.000061 
	C302.002655,581.000061 291.681763,581.122498 281.367004,580.924622 
	C278.320435,580.866150 277.423126,582.225647 276.979797,584.799072 
	C275.361084,594.195984 273.716583,603.589600 271.941193,612.957825 
	C271.230011,616.710754 270.154236,620.394653 269.244415,624.109924 
	C269.000397,624.055725 268.756378,624.001526 268.512360,623.947327 
	C265.627930,609.644836 262.743500,595.342346 259.915588,581.320068 
	C247.238785,581.320068 235.157791,581.320068 223.001816,581.320068 
	C223.001816,583.802063 222.713333,586.020935 223.120087,588.104004 
	C223.332458,589.191650 224.619202,590.631775 225.676224,590.897949 
	C231.207214,592.290771 232.980865,594.154663 232.988281,599.650085 
	C233.017044,620.972351 232.983047,642.294556 233.013748,663.616821 
	C233.020172,668.074097 231.085037,670.460938 226.523422,671.149414 
	C225.209427,671.347839 223.570816,673.165894 223.145691,674.564941 
	C222.564331,676.478088 223.000488,678.700562 223.000488,680.716370 
	C233.325134,680.716370 243.067062,680.716370 253.000000,680.716370 
	C253.000000,678.787415 253.000000,677.140808 253.000000,675.494263 
	C253.000000,674.175049 253.000000,672.855774 253.000000,671.582336 
	C246.723236,670.279175 245.008926,668.101501 245.003387,661.553467 
	C244.992096,648.227051 244.990570,634.900696 245.012955,621.574280 
	C245.015518,620.052673 245.196411,618.531372 245.294632,617.009949 
	C245.706879,616.997498 246.119125,616.985046 246.531372,616.972656 
	C249.020905,629.815063 251.510452,642.657532 254.002640,656.377563 
M911.499573,681.000000 
	C917.599915,681.000000 923.700195,681.000000 930.000000,681.000000 
	C930.000000,678.966980 930.000000,677.487427 930.000000,676.007812 
	C930.000000,674.384705 930.000000,672.761597 930.000000,671.163513 
	C922.075867,670.822205 919.539795,669.139832 919.126953,662.474121 
	C918.627502,654.411316 919.008606,646.293884 919.008606,638.000000 
	C923.220154,638.000000 926.863403,637.999451 930.506653,638.000122 
	C937.242249,638.001221 939.264343,639.110779 940.901733,645.609497 
	C942.668457,652.621704 943.586060,659.843811 945.022095,666.944397 
	C946.710754,675.294006 951.934998,681.816223 957.637390,682.052490 
	C969.216614,682.532288 974.926575,679.315918 976.694214,669.342957 
	C978.027039,661.822754 977.876648,654.039673 978.396179,646.226135 
	C974.468445,646.226135 971.396179,646.226135 968.201599,646.226135 
	C967.304077,651.637329 969.616455,657.548279 964.335754,663.083069 
	C960.234497,651.743774 964.123230,638.684814 955.141052,631.361877 
	C956.904724,629.016968 958.459045,626.951904 960.011841,624.885803 
	C964.338318,619.129089 965.323669,612.489136 964.985962,605.554077 
	C964.260681,590.662292 956.792419,582.506592 943.102173,581.358154 
	C925.621277,579.891663 907.924133,581.002502 890.196289,581.002502 
	C890.196289,584.550049 890.196289,587.643616 890.196289,590.742432 
	C898.739319,590.433533 899.729431,595.170227 899.861694,601.747070 
	C900.249939,621.059570 900.014160,640.384827 899.993652,659.705139 
	C899.984497,668.306274 898.409912,670.175110 890.289001,671.547058 
	C890.289001,674.644287 890.289001,677.721375 890.289001,681.000000 
	C897.217590,681.000000 903.858643,681.000000 911.499573,681.000000 
M434.000000,623.500000 
	C434.000000,635.656982 434.000122,647.813965 433.999939,659.970947 
	C433.999786,669.186218 433.112854,670.235840 424.257874,671.501282 
	C424.257874,674.578491 424.257874,677.655762 424.257874,681.000000 
	C437.974762,681.000000 451.440582,680.773193 464.894348,681.078308 
	C474.164459,681.288391 481.567413,677.481384 487.968079,671.452637 
	C498.065674,661.941711 501.878510,649.401001 502.842499,636.156189 
	C503.720428,624.094177 502.025299,612.128601 498.027618,600.569153 
	C494.571259,590.574890 483.347778,580.309265 471.242035,580.848145 
	C456.782227,581.491760 442.271881,580.992493 427.783478,581.013306 
	C426.532257,581.015076 425.281311,581.204224 424.000000,581.308838 
	C424.000000,583.221497 424.000000,584.719604 424.000000,586.217773 
	C424.000000,587.790344 424.000000,589.362854 424.000000,590.908447 
	C431.422241,591.093994 433.921326,593.606384 433.984863,600.517639 
	C434.052216,607.844543 434.000000,615.172485 434.000000,623.500000 
M804.000000,617.592163 
	C804.332397,630.326477 803.278381,643.285645 805.299072,655.746216 
	C808.979858,678.443909 827.075745,685.207520 846.261963,681.160522 
	C861.286194,677.991394 870.288757,661.443909 870.047913,648.936523 
	C869.823425,637.279419 869.847778,625.611877 870.057617,613.954224 
	C870.181335,607.082825 868.125427,600.963989 865.013916,595.017517 
	C856.918152,579.545654 835.010254,575.928955 821.668945,583.677979 
	C808.867065,591.113647 804.479614,602.741943 804.000000,617.592163 
M693.057251,659.485840 
	C693.704834,656.359924 694.853516,653.243225 694.911133,650.106445 
	C695.131287,638.130798 694.715271,626.140198 695.068787,614.170898 
	C695.562073,597.466980 682.691345,578.934082 661.215027,579.668030 
	C645.425781,580.207581 631.465393,592.906921 630.306763,607.086914 
	C628.984802,623.265259 628.226562,639.878174 630.425171,655.861877 
	C633.501587,678.227539 651.814270,685.338379 671.295776,681.101135 
	C682.520020,678.659912 688.992737,670.613953 693.057251,659.485840 
M360.003326,584.522705 
	C358.001587,592.122986 356.056671,599.738770 353.986481,607.320374 
	C349.425903,624.022461 344.952026,640.750793 340.123352,657.375732 
	C338.417572,663.248596 337.149261,669.877563 329.335236,671.339844 
	C328.731537,671.452759 328.156677,673.198242 328.059784,674.231018 
	C327.862457,676.334106 328.000702,678.468750 328.000702,680.658569 
	C339.879272,680.658569 351.407104,680.658569 362.859802,680.658569 
	C362.859802,677.338501 362.859802,674.360901 362.859802,671.183655 
	C358.117584,671.052856 354.919067,669.197937 354.990570,664.016846 
	C355.040497,660.398132 355.099884,656.770386 355.398804,653.166870 
	C355.683502,649.735168 357.669556,648.634949 361.142273,648.913452 
	C365.588806,649.270020 370.085541,649.000000 374.600250,649.000000 
	C375.303040,652.211487 375.862122,655.190186 376.613953,658.119507 
	C378.560272,665.702881 375.896912,670.000244 368.252258,671.469482 
	C368.252258,674.554260 368.252258,677.638977 368.252258,680.762573 
	C381.572784,680.762573 394.639771,680.762573 407.852234,680.762573 
	C407.852234,677.573120 407.852234,674.616638 407.852234,671.412170 
	C402.144165,670.349304 399.374939,666.358704 397.965363,661.005371 
	C392.002045,638.357666 385.798706,615.770874 380.075104,593.063049 
	C376.772125,579.958862 377.081421,579.798340 363.505005,581.102783 
	C362.280945,581.220337 361.194916,582.773743 360.003326,584.522705 
M611.033386,431.363525 
	C607.892395,425.728058 604.751465,420.092560 601.276550,413.857849 
	C580.215576,450.088715 559.845886,485.130402 538.996094,520.997986 
	C546.149719,520.997986 552.100830,521.090393 558.043457,520.907776 
	C559.043213,520.876953 560.381958,519.879272 560.929688,518.953125 
	C568.209473,506.644226 575.384399,494.273193 582.567993,481.907532 
	C588.585449,471.549347 594.579956,461.177856 601.155762,449.826416 
	C615.181091,474.103424 628.720642,497.539459 642.149109,520.783203 
	C648.933289,520.783203 655.368469,520.783203 662.795898,520.783203 
	C645.462402,490.790436 628.469360,461.386688 611.033386,431.363525 
M759.000000,612.637451 
	C759.336914,608.222717 759.175354,603.687195 760.205200,599.440491 
	C760.785339,597.048096 763.536255,593.257996 764.943420,593.413330 
	C767.438843,593.688782 770.592896,596.019653 771.760315,598.348267 
	C773.348267,601.516052 773.607727,605.465149 773.924255,609.123535 
	C774.261230,613.017944 774.000000,616.964050 774.000000,620.670044 
	C778.061829,620.670044 781.468567,620.670044 784.673035,620.670044 
	C784.673035,607.269165 784.673035,594.200073 784.673035,581.320679 
	C761.612488,581.320679 738.880005,581.320679 716.313721,581.320679 
	C716.313721,594.717773 716.313721,607.792297 716.313721,620.680420 
	C719.709290,620.680420 722.785034,620.680420 726.000000,620.680420 
	C726.000000,616.377625 725.373718,612.264038 726.158997,608.440308 
	C727.134583,603.689087 728.621704,598.778015 731.115845,594.684143 
	C733.254333,591.174072 737.650330,592.383667 738.935974,596.449829 
	C739.898071,599.492676 740.877808,602.697266 740.909729,605.839355 
	C741.094421,623.996094 741.129700,642.157104 740.939392,660.313782 
	C740.856934,668.181641 738.523376,670.501160 731.225098,671.409424 
	C731.225098,674.493408 731.225098,677.581116 731.225098,680.776001 
	C744.190735,680.776001 756.930420,680.776001 769.799866,680.776001 
	C769.799866,677.458923 769.799866,674.368103 769.799866,670.946228 
	C765.356079,671.303406 761.073547,671.039429 760.089478,665.810059 
	C759.367004,661.971191 759.081604,658.004089 759.046509,654.090149 
	C758.925598,640.597168 759.000000,627.102478 759.000000,612.637451 
M628.518372,507.012634 
	C619.484741,491.217743 610.451172,475.422852 601.174805,459.203400 
	C584.796265,487.511993 568.909790,514.970093 552.821411,542.777100 
	C584.986755,542.777100 616.732239,542.777100 648.657715,542.777100 
	C648.251343,541.847717 647.895996,540.785522 647.352600,539.830261 
	C641.240540,529.086182 635.099548,518.358643 628.518372,507.012634 
z"/>
<path fill="#FFFFFF" opacity="1.000000" stroke="none" 
	d="
M987.985840,705.000000 
	C725.520447,705.000000 463.551880,705.000000 201.291718,705.000000 
	C201.291718,698.058899 201.291718,691.319458 201.291718,684.287842 
	C204.612823,684.287842 208.019852,684.287842 211.823242,684.287842 
	C211.823242,687.279724 211.823242,690.361328 211.823242,693.720032 
	C471.281647,693.720032 730.350464,693.720032 989.814331,693.720032 
	C989.814331,690.725830 989.814331,687.646851 989.814331,684.285156 
	C993.270630,684.285156 996.349365,684.285156 999.717285,684.285156 
	C999.717285,690.942444 999.717285,697.687073 999.717285,705.000000 
	C996.025513,705.000000 992.254150,705.000000 987.985840,705.000000 
z"/>
<path fill="#FFFFFF" opacity="1.000000" stroke="none" 
	d="
M568.000000,568.000000 
	C449.193207,568.000000 330.886444,568.000000 212.185699,568.000000 
	C212.185699,571.271912 212.185699,574.356140 212.185699,577.714966 
	C208.395508,577.714966 204.984680,577.714966 201.283783,577.714966 
	C201.283783,571.385437 201.283783,564.977295 201.283783,558.282227 
	C467.292145,558.282227 733.355835,558.282227 999.709839,558.282227 
	C999.709839,564.610962 999.709839,571.018066 999.709839,577.714233 
	C996.717712,577.714233 993.643005,577.714233 990.172791,577.714233 
	C990.172791,574.719971 990.172791,571.636841 990.172791,568.000000 
	C849.356445,568.000000 708.928223,568.000000 568.000000,568.000000 
z"/>
<path fill="#FFFFFF" opacity="1.000000" stroke="none" 
	d="
M600.112915,665.304260 
	C601.814026,670.180847 605.112793,671.775085 609.812683,670.981445 
	C609.812683,674.415039 609.812683,677.502869 609.812683,680.795349 
	C597.216858,680.795349 584.806763,680.795349 572.198181,680.795349 
	C572.198181,677.673645 572.198181,674.728271 572.198181,671.748474 
	C579.161011,669.652710 580.985779,667.222107 580.994263,659.739685 
	C581.012817,643.330688 581.000000,626.921692 580.360596,610.468079 
	C575.805176,633.863708 571.249756,657.259338 566.661133,680.825439 
	C563.043518,680.825439 559.409790,680.825439 555.247009,680.825439 
	C551.030762,659.333313 546.778687,637.658997 542.526672,615.984680 
	C542.190552,615.988525 541.854492,615.992432 541.518433,615.996277 
	C541.345703,616.984680 541.024780,617.972656 541.022522,618.961426 
	C540.989807,633.127258 540.911743,647.294006 541.051025,661.458557 
	C541.095764,666.008545 541.948181,670.314209 547.810364,671.132263 
	C548.647888,671.249146 549.742249,672.815796 549.898682,673.837036 
	C550.222961,675.953247 549.996521,678.153870 549.996521,680.659790 
	C540.198425,680.659790 530.451172,680.659790 520.350952,680.659790 
	C520.350952,677.843506 520.350952,674.775635 520.350952,671.646912 
	C528.209839,669.791504 529.984497,667.481506 529.994080,658.645874 
	C530.013672,640.480225 530.052429,622.314209 529.946350,604.149170 
	C529.929504,601.253052 529.983154,597.884888 528.589783,595.596069 
	C527.084656,593.123657 523.919617,591.661804 521.478638,589.759155 
	C521.077515,590.145386 520.676392,590.531555 520.275269,590.917725 
	C520.275269,587.823853 520.275269,584.729919 520.275269,581.010620 
	C531.547668,581.010620 542.977966,580.919678 554.399963,581.186279 
	C555.295898,581.207214 556.617310,583.620605 556.922485,585.091858 
	C559.535461,597.687805 561.959351,610.322937 564.439758,622.946350 
	C564.915466,623.023987 565.391174,623.101685 565.866821,623.179321 
	C568.616150,609.180969 571.365417,595.182678 574.125488,581.129517 
	C586.088806,581.129517 597.723755,581.129517 609.679565,581.129517 
	C609.679565,584.218140 609.679565,587.286743 609.679565,590.398438 
	C600.578064,592.250793 599.998596,592.986755 600.000305,602.879639 
	C600.003967,623.545227 600.009277,644.210876 600.112915,665.304260 
z"/>
<path fill="#FFFFFF" opacity="1.000000" stroke="none" 
	d="
M254.001312,655.938721 
	C251.510452,642.657532 249.020905,629.815063 246.531372,616.972656 
	C246.119125,616.985046 245.706879,616.997498 245.294632,617.009949 
	C245.196411,618.531372 245.015518,620.052673 245.012955,621.574280 
	C244.990570,634.900696 244.992096,648.227051 245.003387,661.553467 
	C245.008926,668.101501 246.723236,670.279175 253.000000,671.582336 
	C253.000000,672.855774 253.000000,674.175049 253.000000,675.494263 
	C253.000000,677.140808 253.000000,678.787415 253.000000,680.716370 
	C243.067062,680.716370 233.325134,680.716370 223.000488,680.716370 
	C223.000488,678.700562 222.564331,676.478088 223.145691,674.564941 
	C223.570816,673.165894 225.209427,671.347839 226.523422,671.149414 
	C231.085037,670.460938 233.020172,668.074097 233.013748,663.616821 
	C232.983047,642.294556 233.017044,620.972351 232.988281,599.650085 
	C232.980865,594.154663 231.207214,592.290771 225.676224,590.897949 
	C224.619202,590.631775 223.332458,589.191650 223.120087,588.104004 
	C222.713333,586.020935 223.001816,583.802063 223.001816,581.320068 
	C235.157791,581.320068 247.238785,581.320068 259.915588,581.320068 
	C262.743500,595.342346 265.627930,609.644836 268.512360,623.947327 
	C268.756378,624.001526 269.000397,624.055725 269.244415,624.109924 
	C270.154236,620.394653 271.230011,616.710754 271.941193,612.957825 
	C273.716583,603.589600 275.361084,594.195984 276.979797,584.799072 
	C277.423126,582.225647 278.320435,580.866150 281.367004,580.924622 
	C291.681763,581.122498 302.002655,581.000061 312.660400,581.000061 
	C312.660400,584.177612 312.660400,587.246643 312.660400,590.368408 
	C305.337189,592.021057 303.145782,594.687805 303.053986,603.912109 
	C302.871643,622.234070 302.953308,640.559387 303.053619,658.882629 
	C303.067627,661.443726 303.320068,664.222839 304.359131,666.489807 
	C305.193390,668.310059 307.453125,670.819458 308.964478,670.742676 
	C314.130310,670.480286 314.337128,673.287170 314.015350,676.997070 
	C313.916504,678.136841 314.000000,679.292419 314.000000,680.720093 
	C301.413086,680.720093 289.001282,680.720093 276.293762,680.720093 
	C276.293762,677.728394 276.293762,674.648987 276.293762,671.541992 
	C282.821198,670.146912 284.799225,667.926331 284.924530,659.485657 
	C285.176544,642.511230 284.999481,625.530396 284.405426,608.484375 
	C281.936768,621.520569 279.478607,634.558716 276.996124,647.592285 
	C275.002441,658.059448 273.036835,668.533081 270.861023,678.962524 
	C270.685303,679.804871 269.023285,680.804016 267.971771,680.906372 
	C265.179993,681.178162 262.344238,680.998657 259.233887,680.998657 
	C257.469147,672.692810 255.735886,664.535217 254.001312,655.938721 
z"/>
<path fill="#FFFFFF" opacity="1.000000" stroke="none" 
	d="
M910.999634,681.000000 
	C903.858643,681.000000 897.217590,681.000000 890.289001,681.000000 
	C890.289001,677.721375 890.289001,674.644287 890.289001,671.547058 
	C898.409912,670.175110 899.984497,668.306274 899.993652,659.705139 
	C900.014160,640.384827 900.249939,621.059570 899.861694,601.747070 
	C899.729431,595.170227 898.739319,590.433533 890.196289,590.742432 
	C890.196289,587.643616 890.196289,584.550049 890.196289,581.002502 
	C907.924133,581.002502 925.621277,579.891663 943.102173,581.358154 
	C956.792419,582.506592 964.260681,590.662292 964.985962,605.554077 
	C965.323669,612.489136 964.338318,619.129089 960.011841,624.885803 
	C958.459045,626.951904 956.904724,629.016968 955.141052,631.361877 
	C964.123230,638.684814 960.234497,651.743774 964.335754,663.083069 
	C969.616455,657.548279 967.304077,651.637329 968.201599,646.226135 
	C971.396179,646.226135 974.468445,646.226135 978.396179,646.226135 
	C977.876648,654.039673 978.027039,661.822754 976.694214,669.342957 
	C974.926575,679.315918 969.216614,682.532288 957.637390,682.052490 
	C951.934998,681.816223 946.710754,675.294006 945.022095,666.944397 
	C943.586060,659.843811 942.668457,652.621704 940.901733,645.609497 
	C939.264343,639.110779 937.242249,638.001221 930.506653,638.000122 
	C926.863403,637.999451 923.220154,638.000000 919.008606,638.000000 
	C919.008606,646.293884 918.627502,654.411316 919.126953,662.474121 
	C919.539795,669.139832 922.075867,670.822205 930.000000,671.163513 
	C930.000000,672.761597 930.000000,674.384705 930.000000,676.007812 
	C930.000000,677.487427 930.000000,678.966980 930.000000,681.000000 
	C923.700195,681.000000 917.599915,681.000000 910.999634,681.000000 
M919.000793,601.029785 
	C919.000793,607.941101 919.000793,614.852417 919.000793,621.999634 
	C923.833923,621.999634 928.146790,622.245117 932.412903,621.905151 
	C934.868652,621.709351 937.663208,621.136719 939.584656,619.741333 
	C945.143982,615.704224 946.439819,610.623535 943.954041,602.295654 
	C942.366089,596.975586 938.645325,595.000549 931.198364,595.000000 
	C929.703735,594.999939 928.202637,595.089172 926.715637,594.982727 
	C922.778748,594.700928 920.157104,596.295715 919.000793,601.029785 
z"/>
<path fill="#FFFFFF" opacity="1.000000" stroke="none" 
	d="
M434.000000,623.000000 
	C434.000000,615.172485 434.052216,607.844543 433.984863,600.517639 
	C433.921326,593.606384 431.422241,591.093994 424.000000,590.908447 
	C424.000000,589.362854 424.000000,587.790344 424.000000,586.217773 
	C424.000000,584.719604 424.000000,583.221497 424.000000,581.308838 
	C425.281311,581.204224 426.532257,581.015076 427.783478,581.013306 
	C442.271881,580.992493 456.782227,581.491760 471.242035,580.848145 
	C483.347778,580.309265 494.571259,590.574890 498.027618,600.569153 
	C502.025299,612.128601 503.720428,624.094177 502.842499,636.156189 
	C501.878510,649.401001 498.065674,661.941711 487.968079,671.452637 
	C481.567413,677.481384 474.164459,681.288391 464.894348,681.078308 
	C451.440582,680.773193 437.974762,681.000000 424.257874,681.000000 
	C424.257874,677.655762 424.257874,674.578491 424.260864,671.498169 
	C433.112854,670.235840 433.999786,669.186218 433.999939,659.970947 
	C434.000122,647.813965 434.000000,635.656982 434.000000,623.000000 
M480.992920,629.492493 
	C480.661987,627.921326 480.148285,626.363464 480.032928,624.776611 
	C479.616089,619.043335 479.434967,613.292236 478.977783,607.562805 
	C478.124817,596.872559 473.886292,593.000000 463.285339,593.000000 
	C462.119904,593.000000 460.944550,593.098694 459.790741,592.982849 
	C454.964081,592.498413 453.113159,595.561523 453.080719,599.475769 
	C452.909485,620.119263 452.892639,640.766113 453.142731,661.408020 
	C453.172546,663.867249 454.635986,666.799622 456.374115,668.611938 
	C458.175873,670.490662 467.654205,668.645264 469.873901,666.668518 
	C475.950012,661.257324 477.528137,653.774597 478.933838,646.333191 
	C479.925568,641.083435 480.300903,635.717285 480.992920,629.492493 
z"/>
<path fill="#FFFFFF" opacity="1.000000" stroke="none" 
	d="
M804.000000,617.107178 
	C804.479614,602.741943 808.867065,591.113647 821.668945,583.677979 
	C835.010254,575.928955 856.918152,579.545654 865.013916,595.017517 
	C868.125427,600.963989 870.181335,607.082825 870.057617,613.954224 
	C869.847778,625.611877 869.823425,637.279419 870.047913,648.936523 
	C870.288757,661.443909 861.286194,677.991394 846.261963,681.160522 
	C827.075745,685.207520 808.979858,678.443909 805.299072,655.746216 
	C803.278381,643.285645 804.332397,630.326477 804.000000,617.107178 
M848.000000,642.495605 
	C848.000000,629.673645 848.437622,616.831299 847.841675,604.037109 
	C847.463013,595.908264 843.337219,590.617676 837.710022,590.917542 
	C832.048340,591.219177 827.112793,595.377136 827.061218,601.392273 
	C826.897095,620.540527 826.635620,639.701294 827.171326,658.836060 
	C827.402222,667.083984 831.391541,670.883484 837.059998,671.004456 
	C842.513123,671.120850 845.971802,667.439148 846.938782,659.683105 
	C847.606689,654.325684 847.667786,648.892517 848.000000,642.495605 
z"/>
<path fill="#FFFFFF" opacity="1.000000" stroke="none" 
	d="
M693.030151,659.898254 
	C688.992737,670.613953 682.520020,678.659912 671.295776,681.101135 
	C651.814270,685.338379 633.501587,678.227539 630.425171,655.861877 
	C628.226562,639.878174 628.984802,623.265259 630.306763,607.086914 
	C631.465393,592.906921 645.425781,580.207581 661.215027,579.668030 
	C682.691345,578.934082 695.562073,597.466980 695.068787,614.170898 
	C694.715271,626.140198 695.131287,638.130798 694.911133,650.106445 
	C694.853516,653.243225 693.704834,656.359924 693.030151,659.898254 
M673.000000,652.337036 
	C673.000000,636.513794 673.020630,620.690552 672.989868,604.867371 
	C672.977417,598.486877 669.236572,591.911926 665.038269,591.061279 
	C658.220276,589.679688 651.972534,594.805908 651.988159,602.561646 
	C652.025024,620.883240 651.941101,639.205322 652.068604,657.526062 
	C652.086060,660.038818 652.328491,663.071777 653.718323,664.925415 
	C655.593628,667.426453 658.414368,669.718567 661.315857,670.827087 
	C665.196350,672.309692 668.476990,669.892456 669.809631,666.301086 
	C671.352905,662.142151 671.976929,657.642151 673.000000,652.337036 
z"/>
<path fill="#FFFFFF" opacity="1.000000" stroke="none" 
	d="
M360.024048,584.091553 
	C361.194916,582.773743 362.280945,581.220337 363.505005,581.102783 
	C377.081421,579.798340 376.772125,579.958862 380.075104,593.063049 
	C385.798706,615.770874 392.002045,638.357666 397.965363,661.005371 
	C399.374939,666.358704 402.144165,670.349304 407.852234,671.412170 
	C407.852234,674.616638 407.852234,677.573120 407.852234,680.762573 
	C394.639771,680.762573 381.572784,680.762573 368.252258,680.762573 
	C368.252258,677.638977 368.252258,674.554260 368.246582,671.466614 
	C375.896912,670.000244 378.560272,665.702881 376.613953,658.119507 
	C375.862122,655.190186 375.303040,652.211487 374.600250,649.000000 
	C370.085541,649.000000 365.588806,649.270020 361.142273,648.913452 
	C357.669556,648.634949 355.683502,649.735168 355.398804,653.166870 
	C355.099884,656.770386 355.040497,660.398132 354.990570,664.016846 
	C354.919067,669.197937 358.117584,671.052856 362.859802,671.183655 
	C362.859802,674.360901 362.859802,677.338501 362.859802,680.658569 
	C351.407104,680.658569 339.879272,680.658569 328.000702,680.658569 
	C328.000702,678.468750 327.862457,676.334106 328.059784,674.231018 
	C328.156677,673.198242 328.731537,671.452759 329.335236,671.339844 
	C337.149261,669.877563 338.417572,663.248596 340.123352,657.375732 
	C344.952026,640.750793 349.425903,624.022461 353.986481,607.320374 
	C356.056671,599.738770 358.001587,592.122986 360.024048,584.091553 
M370.994080,632.598877 
	C369.631348,625.847473 368.268585,619.096069 366.715668,611.402466 
	C364.558563,619.436035 362.669464,626.471497 360.599396,634.180969 
	C364.420166,633.930847 367.671936,633.718018 370.994080,632.598877 
z"/>
<path fill="#FFFFFF" opacity="1.000000" stroke="none" 
	d="
M611.254883,431.673248 
	C628.469360,461.386688 645.462402,490.790436 662.795898,520.783203 
	C655.368469,520.783203 648.933289,520.783203 642.149109,520.783203 
	C628.720642,497.539459 615.181091,474.103424 601.155762,449.826416 
	C594.579956,461.177856 588.585449,471.549347 582.567993,481.907532 
	C575.384399,494.273193 568.209473,506.644226 560.929688,518.953125 
	C560.381958,519.879272 559.043213,520.876953 558.043457,520.907776 
	C552.100830,521.090393 546.149719,520.997986 538.996094,520.997986 
	C559.845886,485.130402 580.215576,450.088715 601.276550,413.857849 
	C604.751465,420.092560 607.892395,425.728058 611.254883,431.673248 
z"/>
<path fill="#FFFFFF" opacity="1.000000" stroke="none" 
	d="
M759.000000,613.122925 
	C759.000000,627.102478 758.925598,640.597168 759.046509,654.090149 
	C759.081604,658.004089 759.367004,661.971191 760.089478,665.810059 
	C761.073547,671.039429 765.356079,671.303406 769.799866,670.946228 
	C769.799866,674.368103 769.799866,677.458923 769.799866,680.776001 
	C756.930420,680.776001 744.190735,680.776001 731.225098,680.776001 
	C731.225098,677.581116 731.225098,674.493408 731.225098,671.409424 
	C738.523376,670.501160 740.856934,668.181641 740.939392,660.313782 
	C741.129700,642.157104 741.094421,623.996094 740.909729,605.839355 
	C740.877808,602.697266 739.898071,599.492676 738.935974,596.449829 
	C737.650330,592.383667 733.254333,591.174072 731.115845,594.684143 
	C728.621704,598.778015 727.134583,603.689087 726.158997,608.440308 
	C725.373718,612.264038 726.000000,616.377625 726.000000,620.680420 
	C722.785034,620.680420 719.709290,620.680420 716.313721,620.680420 
	C716.313721,607.792297 716.313721,594.717773 716.313721,581.320679 
	C738.880005,581.320679 761.612488,581.320679 784.673035,581.320679 
	C784.673035,594.200073 784.673035,607.269165 784.673035,620.670044 
	C781.468567,620.670044 778.061829,620.670044 774.000000,620.670044 
	C774.000000,616.964050 774.261230,613.017944 773.924255,609.123535 
	C773.607727,605.465149 773.348267,601.516052 771.760315,598.348267 
	C770.592896,596.019653 767.438843,593.688782 764.943420,593.413330 
	C763.536255,593.257996 760.785339,597.048096 760.205200,599.440491 
	C759.175354,603.687195 759.336914,608.222717 759.000000,613.122925 
z"/>
<path fill="#FFFFFF" opacity="1.000000" stroke="none" 
	d="
M628.742371,507.319641 
	C635.099548,518.358643 641.240540,529.086182 647.352600,539.830261 
	C647.895996,540.785522 648.251343,541.847717 648.657715,542.777100 
	C616.732239,542.777100 584.986755,542.777100 552.821411,542.777100 
	C568.909790,514.970093 584.796265,487.511993 601.174805,459.203400 
	C610.451172,475.422852 619.484741,491.217743 628.742371,507.319641 
M611.459045,492.965637 
	C608.170166,487.034241 604.881287,481.102844 601.267029,474.584686 
	C589.216431,495.231750 577.485413,515.331177 565.649963,535.609497 
	C589.601257,535.609497 612.743408,535.609497 636.275635,535.609497 
	C628.005493,521.263855 620.002747,507.381927 611.459045,492.965637 
z"/>
<path fill="#000000" opacity="1.000000" stroke="none" 
	d="
M919.006897,600.585449 
	C920.157104,596.295715 922.778748,594.700928 926.715637,594.982727 
	C928.202637,595.089172 929.703735,594.999939 931.198364,595.000000 
	C938.645325,595.000549 942.366089,596.975586 943.954041,602.295654 
	C946.439819,610.623535 945.143982,615.704224 939.584656,619.741333 
	C937.663208,621.136719 934.868652,621.709351 932.412903,621.905151 
	C928.146790,622.245117 923.833923,621.999634 919.000793,621.999634 
	C919.000793,614.852417 919.000793,607.941101 919.006897,600.585449 
z"/>
<path fill="#000000" opacity="1.000000" stroke="none" 
	d="
M480.972168,629.947754 
	C480.300903,635.717285 479.925568,641.083435 478.933838,646.333191 
	C477.528137,653.774597 475.950012,661.257324 469.873901,666.668518 
	C467.654205,668.645264 458.175873,670.490662 456.374115,668.611938 
	C454.635986,666.799622 453.172546,663.867249 453.142731,661.408020 
	C452.892639,640.766113 452.909485,620.119263 453.080719,599.475769 
	C453.113159,595.561523 454.964081,592.498413 459.790741,592.982849 
	C460.944550,593.098694 462.119904,593.000000 463.285339,593.000000 
	C473.886292,593.000000 478.124817,596.872559 478.977783,607.562805 
	C479.434967,613.292236 479.616089,619.043335 480.032928,624.776611 
	C480.148285,626.363464 480.661987,627.921326 480.972168,629.947754 
z"/>
<path fill="#000000" opacity="1.000000" stroke="none" 
	d="
M848.000000,642.994385 
	C847.667786,648.892517 847.606689,654.325684 846.938782,659.683105 
	C845.971802,667.439148 842.513123,671.120850 837.059998,671.004456 
	C831.391541,670.883484 827.402222,667.083984 827.171326,658.836060 
	C826.635620,639.701294 826.897095,620.540527 827.061218,601.392273 
	C827.112793,595.377136 832.048340,591.219177 837.710022,590.917542 
	C843.337219,590.617676 847.463013,595.908264 847.841675,604.037109 
	C848.437622,616.831299 848.000000,629.673645 848.000000,642.994385 
z"/>
<path fill="#000000" opacity="1.000000" stroke="none" 
	d="
M673.000000,652.813599 
	C671.976929,657.642151 671.352905,662.142151 669.809631,666.301086 
	C668.476990,669.892456 665.196350,672.309692 661.315857,670.827087 
	C658.414368,669.718567 655.593628,667.426453 653.718323,664.925415 
	C652.328491,663.071777 652.086060,660.038818 652.068604,657.526062 
	C651.941101,639.205322 652.025024,620.883240 651.988159,602.561646 
	C651.972534,594.805908 658.220276,589.679688 665.038269,591.061279 
	C669.236572,591.911926 672.977417,598.486877 672.989868,604.867371 
	C673.020630,620.690552 673.000000,636.513794 673.000000,652.813599 
z"/>
<path fill="#000000" opacity="1.000000" stroke="none" 
	d="
M370.958893,633.052002 
	C367.671936,633.718018 364.420166,633.930847 360.599396,634.180969 
	C362.669464,626.471497 364.558563,619.436035 366.715668,611.402466 
	C368.268585,619.096069 369.631348,625.847473 370.958893,633.052002 
z"/>
<path fill="#000000" opacity="1.000000" stroke="none" 
	d="
M611.729492,493.232819 
	C620.002747,507.381927 628.005493,521.263855 636.275635,535.609497 
	C612.743408,535.609497 589.601257,535.609497 565.649963,535.609497 
	C577.485413,515.331177 589.216431,495.231750 601.267029,474.584686 
	C604.881287,481.102844 608.170166,487.034241 611.729492,493.232819 
M611.497742,531.000000 
	C617.150024,531.000000 622.802307,531.000000 629.002380,531.000000 
	C619.770447,514.861450 610.700195,499.005524 601.239441,482.466980 
	C591.622192,498.957764 582.372437,514.818420 572.935547,531.000000 
	C585.886536,531.000000 598.192688,531.000000 611.497742,531.000000 
z"/>
<path fill="#FFFFFF" opacity="1.000000" stroke="none" 
	d="
M610.998291,531.000000 
	C598.192688,531.000000 585.886536,531.000000 572.935547,531.000000 
	C582.372437,514.818420 591.622192,498.957764 601.239441,482.466980 
	C610.700195,499.005524 619.770447,514.861450 629.002380,531.000000 
	C622.802307,531.000000 617.150024,531.000000 610.998291,531.000000 
z"/>
</svg>